HIERARCHY
ROOT hip
{
  OFFSET 0 0 0
  CHANNELS 6 Xposition Yposition Zposition Zrotation Yrotation Xrotation
  JOINT abdomen
  {
    OFFSET 0 20.6881 -0.73152
    CHANNELS 3 Zrotation Xrotation Yrotation
    JOINT chest
    {
      OFFSET 0 11.7043 -0.48768
      CHANNELS 3 Zrotation Xrotation Yrotation
      JOINT neck
      {
        OFFSET 0 22.1894 -2.19456
        CHANNELS 3 Zrotation Xrotation Yrotation
        JOINT head
        {
          OFFSET -0.24384 7.07133 1.2192
          CHANNELS 3 Zrotation Xrotation Yrotation
          JOINT leftEye
          {
            OFFSET 4.14528 8.04674 8.04672
            CHANNELS 3 Zrotation Xrotation Yrotation
            End Site
            {
              OFFSET 1 0 0
            }
          }
          JOINT rightEye
          {
            OFFSET -3.6576 8.04674 8.04672
            CHANNELS 3 Zrotation Xrotation Yrotation
            End Site
            {
              OFFSET 1 0 0
            }
          }
        }
      }
      JOINT rCollar
      {
        OFFSET -2.68224 19.2634 -4.8768
        CHANNELS 3 Zrotation Xrotation Yrotation
        JOINT rShldr
        {
          OFFSET -8.77824 -1.95073 1.46304
          CHANNELS 3 Zrotation Xrotation Yrotation
          JOINT rForeArm
          {
            OFFSET -28.1742 -1.7115 0.48768
            CHANNELS 3 Zrotation Xrotation Yrotation
            JOINT rHand
            {
              OFFSET -22.5879 0.773209 7.07136
              CHANNELS 3 Zrotation Xrotation Yrotation
              JOINT rThumb1
              {
                OFFSET -1.2192 -0.487915 3.41376
                CHANNELS 3 Zrotation Xrotation Yrotation
                JOINT rThumb2
                {
                  OFFSET -3.37035 -0.52449 3.41376
                  CHANNELS 3 Zrotation Xrotation Yrotation
                  End Site
                  {
                    OFFSET -1.78271 -1.18214 1.43049
                  }
                }
              }
              JOINT rIndex1
              {
                OFFSET -7.75947 0.938293 5.60832
                CHANNELS 3 Zrotation Xrotation Yrotation
                JOINT rIndex2
                {
                  OFFSET -2.54057 -0.884171 1.56538
                  CHANNELS 3 Zrotation Xrotation Yrotation
                  End Site
                  {
                    OFFSET -1.62519 -0.234802 1.16502
                  }
                }
              }
              JOINT rMid1
              {
                OFFSET -8.24714 1.18213 3.41376
                CHANNELS 3 Zrotation Xrotation Yrotation
                JOINT rMid2
                {
                  OFFSET -3.10165 -0.590103 1.0647
                  CHANNELS 3 Zrotation Xrotation Yrotation
                  End Site
                  {
                    OFFSET -2.48547 -0.328903 0.83742
                  }
                }
              }
              JOINT rRing1
              {
                OFFSET -8.82822 0.546677 1.51678
                CHANNELS 3 Zrotation Xrotation Yrotation
                JOINT rRing2
                {
                  OFFSET -2.60934 -0.819778 -0.0198488
                  CHANNELS 3 Zrotation Xrotation Yrotation
                  End Site
                  {
                    OFFSET -2.33842 -0.294052 0.168128
                  }
                }
              }
              JOINT rPinky1
              {
                OFFSET -8.27202 -0.0477905 -0.4584
                CHANNELS 3 Zrotation Xrotation Yrotation
                JOINT rPinky2
                {
                  OFFSET -1.82734 -0.647385 -0.700984
                  CHANNELS 3 Zrotation Xrotation Yrotation
                  End Site
                  {
                    OFFSET -1.69225 -0.51767 -0.607171
                  }
                }
              }
            }
          }
        }
      }
      JOINT lCollar
      {
        OFFSET 2.68224 19.2634 -4.8768
        CHANNELS 3 Zrotation Xrotation Yrotation
        JOINT lShldr
        {
          OFFSET 8.77824 -1.95073 1.46304
          CHANNELS 3 Zrotation Xrotation Yrotation
          JOINT lForeArm
          {
            OFFSET 28.1742 -1.7115 0.48768
            CHANNELS 3 Zrotation Xrotation Yrotation
            JOINT lHand
            {
              OFFSET 22.5879 0.773209 7.07136
              CHANNELS 3 Zrotation Xrotation Yrotation
              JOINT lThumb1
              {
                OFFSET 1.2192 -0.487915 3.41376
                CHANNELS 3 Zrotation Xrotation Yrotation
                JOINT lThumb2
                {
                  OFFSET 3.37035 -0.52449 3.41376
                  CHANNELS 3 Zrotation Xrotation Yrotation
                  End Site
                  {
                    OFFSET 1.78271 -1.18214 1.43049
                  }
                }
              }
              JOINT lIndex1
              {
                OFFSET 7.75947 0.938293 5.60832
                CHANNELS 3 Zrotation Xrotation Yrotation
                JOINT lIndex2
                {
                  OFFSET 2.54057 -0.884171 1.56538
                  CHANNELS 3 Zrotation Xrotation Yrotation
                  End Site
                  {
                    OFFSET 1.62519 -0.234802 1.16502
                  }
                }
              }
              JOINT lMid1
              {
                OFFSET 8.24714 1.18213 3.41376
                CHANNELS 3 Zrotation Xrotation Yrotation
                JOINT lMid2
                {
                  OFFSET 3.10165 -0.590103 1.0647
                  CHANNELS 3 Zrotation Xrotation Yrotation
                  End Site
                  {
                    OFFSET 2.48547 -0.328903 0.83742
                  }
                }
              }
              JOINT lRing1
              {
                OFFSET 8.82822 0.546677 1.51678
                CHANNELS 3 Zrotation Xrotation Yrotation
                JOINT lRing2
                {
                  OFFSET 2.60934 -0.819778 -0.0198488
                  CHANNELS 3 Zrotation Xrotation Yrotation
                  End Site
                  {
                    OFFSET 2.33842 -0.294052 0.168128
                  }
                }
              }
              JOINT lPinky1
              {
                OFFSET 8.27202 -0.0477905 -0.4584
                CHANNELS 3 Zrotation Xrotation Yrotation
                JOINT lPinky2
                {
                  OFFSET 1.82734 -0.647385 -0.700984
                  CHANNELS 3 Zrotation Xrotation Yrotation
                  End Site
                  {
                    OFFSET 1.69225 -0.51767 -0.607171
                  }
                }
              }
            }
          }
        }
      }
    }
  }
  JOINT rButtock
  {
    OFFSET -8.77824 4.35084 1.2192
    CHANNELS 3 Zrotation Xrotation Yrotation
    JOINT rThigh
    {
      OFFSET 0 -1.70687 -2.19456
      CHANNELS 3 Zrotation Xrotation Yrotation
      JOINT rShin
      {
        OFFSET 0 -36.8199 0.73152
        CHANNELS 3 Zrotation Xrotation Yrotation
        JOINT rFoot
        {
          OFFSET 0.73152 -45.1104 -5.12064
          CHANNELS 3 Zrotation Xrotation Yrotation
          End Site
          {
            OFFSET -1.1221 -3.69964 12.103
          }
        }
      }
    }
  }
  JOINT lButtock
  {
    OFFSET 8.77824 4.35084 1.2192
    CHANNELS 3 Zrotation Xrotation Yrotation
    JOINT lThigh
    {
      OFFSET 0 -1.70687 -2.19456
      CHANNELS 3 Zrotation Xrotation Yrotation
      JOINT lShin
      {
        OFFSET 0 -36.8199 0.73152
        CHANNELS 3 Zrotation Xrotation Yrotation
        JOINT lFoot
        {
          OFFSET -0.73152 -45.1104 -5.12064
          CHANNELS 3 Zrotation Xrotation Yrotation
          End Site
          {
            OFFSET 1.1221 -3.69964 12.103
          }
        }
      }
    }
  }
}
MOTION
Frames:	4
Frame Time:	0.00833333
6.7172 82.4855 52.5203 0.0 0.0 0.0 -4.35895 0.00629232 -0.117456 -1.20159 0.032476 -0.207681 -9.57211e-14 0.0 5.46658e-16 -2.85352e-13 3.18055e-15 1.43808e-15 -0.0 0.0 0.0 -0.0 0.0 0.0 -4.69173e-14 -2.1975e-16 4.96962e-16 -1.00649e-12 -5.00689e-15 1.98785e-15 -1.72893e-11 5.0211e-12 2.41722e-13 -1.98387e-10 -6.14098e-12 4.99347e-13 -4.67861e-10 -2.43013e-12 1.66661e-12 -8.07983e-10 -4.19515e-12 2.90703e-12 -4.67857e-10 -2.42915e-12 1.66343e-12 7.73091 5.47488 0.417314 -4.67862e-10 -2.43034e-12 1.67297e-12 2.90554 0.965183 0.102902 -4.67857e-10 -2.43064e-12 1.67695e-12 10.2786 0.731801 0.0259123 -4.67865e-10 -2.42756e-12 1.68887e-12 2.22167 -0.733487 -0.20892 -4.7111e-14 -2.03832e-16 2.48481e-16 -1.00779e-12 -4.65902e-15 7.95139e-16 -1.73755e-11 -5.34333e-12 2.3218e-13 -1.98328e-10 4.2494e-12 5.34333e-13 -4.67909e-10 -2.37842e-12 1.67615e-12 -8.0805e-10 -4.11246e-12 2.89987e-12 -4.67911e-10 -2.38065e-12 1.68569e-12 -7.73091 5.47488 -0.417314 -4.67908e-10 -2.37915e-12 1.66979e-12 -2.90554 0.965183 -0.102902 -4.67908e-10 -2.37896e-12 1.669e-12 -10.2786 0.731801 -0.0259123 -4.67896e-10 -2.37349e-12 1.65707e-12 -2.22167 -0.733487 0.20892 -2.03217e-16 0.0 -3.88251e-19 -2.88801 -1.94435 0.0304131 -0.00797374 -2.07874 -0.0651026 -0.422447 4.00217 0.127144 2.03217e-16 0.0 3.88251e-19 -3.72533 -11.2507 0.483794 -0.0143136 14.7726 -0.3888 0.544775 -3.54243 0.0125146
4.45132 82.1635 50.4818 -9.2419 -1.1256 9.1145 -1.85292 -2.64281 0.78729 -1.94263 -2.28246 -0.0783384 -3.37936 4.92794 -3.78005 7.1884 -4.67682 -6.78909 -0.0 0.0 0.0 -0.0 0.0 0.0 2.56986e-14 -2.22867e-14 1.17252e-16 23.335 -4.71284 -2.95503 -3.89086 -1.70714 6.14148 0.218048 10.3907 1.37511 -1.0902e-09 3.66746e-10 3.26904e-10 -1.87215e-09 6.23056e-10 5.87994e-10 -1.09019e-09 3.66747e-10 3.26901e-10 7.73091 5.47488 0.417314 -1.0902e-09 3.66745e-10 3.26911e-10 2.90554 0.965183 0.102902 -1.09019e-09 3.66745e-10 3.26912e-10 10.2786 0.731801 0.0259123 -1.0902e-09 3.66747e-10 3.26921e-10 2.22167 -0.733487 -0.20892 2.5548e-14 -2.22757e-14 -8.81329e-17 -23.1077 -3.96255 3.96878 3.95852 -1.74959 -6.23501 -0.00327196 1.30759 -0.183611 -1.33315e-09 -5.97096e-10 -7.01328e-10 -2.30694e-09 -1.03589e-09 -1.20815e-09 -1.33316e-09 -5.97099e-10 -7.01318e-10 -7.73091 5.47488 -0.417314 -1.33315e-09 -5.97098e-10 -7.01333e-10 -2.90554 0.965183 -0.102902 -1.33315e-09 -5.97098e-10 -7.01333e-10 -10.2786 0.731801 -0.0259123 -1.33314e-09 -5.97092e-10 -7.01341e-10 -2.22167 -0.733487 0.20892 -2.03217e-16 0.0 -3.88251e-19 -1.33121 -2.98717 6.99456 0.00406949 -1.78021 0.0416955 -0.925307 1.01431 -6.45629 2.03217e-16 0.0 3.88251e-19 -3.0038 -10.3647 -11.488 -0.0108091 13.9827 -0.27265 1.41525 -8.8245 14.1039
4.44658 82.165 50.4829 -9.2583 -1.1441 9.1054 0.911082 -5.41662 1.7474 -2.71851 -4.74114 0.0569631 -6.24593 10.0703 -7.86499 13.5916 -9.41085 -14.1022 -0.0 0.0 0.0 -0.0 0.0 0.0 1.04516e-13 -4.45241e-14 -1.83255e-15 47.4668 -9.64258 -6.14854 -7.61284 -3.4493 12.658 -0.130085 21.3647 2.98907 -1.7652e-09 7.64928e-10 6.78739e-10 -3.02642e-09 1.29965e-09 1.22094e-09 -1.7652e-09 7.64929e-10 6.78736e-10 7.73091 5.47488 0.417314 -1.7652e-09 7.64926e-10 6.78745e-10 2.90554 0.965183 0.102902 -1.76519e-09 7.64927e-10 6.78744e-10 10.2786 0.731801 0.0259123 -1.7652e-09 7.64928e-10 6.7875e-10 2.22167 -0.733487 -0.20892 1.04411e-13 -4.45185e-14 -1.99095e-15 -46.9377 -8.12047 8.2285 7.72715 -3.52685 -12.8375 0.00258116 2.72628 -0.383159 -2.26827e-09 -1.23001e-09 -1.46645e-09 -3.92688e-09 -2.13401e-09 -2.52626e-09 -2.26828e-09 -1.23001e-09 -1.46644e-09 -7.73091 5.47488 -0.417314 -2.26826e-09 -1.23001e-09 -1.46646e-09 -2.90554 0.965183 -0.102902 -2.26827e-09 -1.23001e-09 -1.46646e-09 -10.2786 0.731801 -0.0259123 -2.26826e-09 -1.23001e-09 -1.46646e-09 -2.22167 -0.733487 0.20892 -2.03217e-16 0.0 -3.88251e-19 0.607671 -3.99257 14.3772 0.0156361 -1.46357 0.15453 -2.19751 -2.07237 -13.4246 2.03217e-16 0.0 3.88251e-19 -1.82033 -8.99607 -24.0473 -0.00363512 13.1443 -0.151179 5.09251 -13.087 29.4811
4.44029 82.1691 50.4918 -9.2923 -1.1404 9.0639 3.41205 -7.93358 2.61936 -3.39322 -6.91229 0.181855 -8.14715 14.5224 -11.6762 18.2428 -13.2351 -20.8785 -0.0 0.0 0.0 -0.0 0.0 0.0 1.7093e-13 -6.64207e-14 -6.42167e-16 68.5153 -13.9858 -9.10728 -10.5923 -4.88651 18.4858 -1.05369 31.0941 4.73994 -2.33486e-09 1.1051e-09 9.7738e-10 -4.00047e-09 1.87756e-09 1.75817e-09 -2.33486e-09 1.1051e-09 9.77377e-10 7.73091 5.47488 0.417314 -2.33487e-09 1.1051e-09 9.77386e-10 2.90554 0.965183 0.102902 -2.33486e-09 1.1051e-09 9.77382e-10 10.2786 0.731801 0.0259123 -2.33487e-09 1.1051e-09 9.77386e-10 2.22167 -0.733487 -0.20892 1.70866e-13 -6.64194e-14 -7.61361e-16 -67.6602 -11.6574 12.1317 10.7521 -5.00062 -18.7704 0.015376 3.92261 -0.551983 -3.06364e-09 -1.78653e-09 -2.10734e-09 -5.30472e-09 -3.09945e-09 -3.63026e-09 -3.06365e-09 -1.78654e-09 -2.10732e-09 -7.73091 5.47488 -0.417314 -3.06363e-09 -1.78654e-09 -2.10734e-09 -2.90554 0.965183 -0.102902 -3.06364e-09 -1.78653e-09 -2.10734e-09 -10.2786 0.731801 -0.0259123 -3.06363e-09 -1.78653e-09 -2.10734e-09 -2.22167 -0.733487 0.20892 -2.03217e-16 0.0 -3.88251e-19 2.52291 -4.80106 20.9713 0.0248166 -1.18315 0.2552 -3.95615 -4.65444 -19.6871 2.03217e-16 0.0 3.88251e-19 -0.384424 -7.55093 -35.1927 0.00603195 12.4027 -0.0428155 10.307 -14.9208 43.5876
